<svg id="Camada_1" data-name="Camada 1" xmlns="http://www.w3.org/2000/svg" viewBox="0 0 19 20">
  <title>administrar</title>
  <path d="M9.5,13.5A3.5,3.5,0,1,1,12.92,10,3.46,3.46,0,0,1,9.5,13.5M16.76,11a7.77,7.77,0,0,0,.07-1,8.55,8.55,0,0,0-.07-1l2.06-1.63a.53.53,0,0,0,.12-.64L17,3.27a.47.47,0,0,0-.59-.22L14,4.05a7.19,7.19,0,0,0-1.65-1L11.94.42A.49.49,0,0,0,11.46,0H7.55a.5.5,0,0,0-.49.42L6.7,3.07a7,7,0,0,0-1.65,1l-2.43-1a.48.48,0,0,0-.6.22L.07,6.73a.5.5,0,0,0,.11.64L2.25,9a8.55,8.55,0,0,0-.07,1,7.77,7.77,0,0,0,.07,1L.18,12.63a.5.5,0,0,0-.11.64l2,3.46a.49.49,0,0,0,.6.22l2.43-1a6.7,6.7,0,0,0,1.65,1l.36,2.65a.5.5,0,0,0,.49.42h3.91a.49.49,0,0,0,.48-.42l.37-2.65a7.23,7.23,0,0,0,1.65-1l2.43,1a.48.48,0,0,0,.59-.22l2-3.46a.53.53,0,0,0-.12-.64Z" style="fill: #919191"/>
</svg>
