<svg id="Camada_1" data-name="Camada 1" xmlns="http://www.w3.org/2000/svg" viewBox="0 0 19 22">
  <title>cronograma</title>
  <g>
    <polygon points="12.82 12 11.4 12 11.4 15.69 14.43 17.53 15.14 16.23 12.82 14.82 12.82 12" style="fill: #919191"/>
    <path d="M17.1,10.1V4a2,2,0,0,0-1.9-2h-.95V0h-1.9V2H4.75V0H2.85V2h-1A2,2,0,0,0,0,4V18a2,2,0,0,0,1.9,2H7.69a6.47,6.47,0,0,0,4.66,2A6.83,6.83,0,0,0,19,15,7.14,7.14,0,0,0,17.1,10.1ZM2.58,3.74H14.42a1.07,1.07,0,0,1,1,1.16V7.43H1.62V4.9A1.07,1.07,0,0,1,2.58,3.74Zm9.77,16.11A4.73,4.73,0,0,1,7.74,15a4.74,4.74,0,0,1,4.61-4.85A4.73,4.73,0,0,1,17,15,4.74,4.74,0,0,1,12.35,19.85Z" style="fill: #ff720a"/>
  </g>
</svg>
