<svg id="Camada_1" data-name="Camada 1" xmlns="http://www.w3.org/2000/svg" viewBox="0 0 25 15">
  <title>equipe</title>
  <path d="M12.5,0A3.44,3.44,0,0,0,9.09,3.46a3.41,3.41,0,1,0,6.82,0A3.44,3.44,0,0,0,12.5,0M5.68,2.5a2.89,2.89,0,0,0,0,5.77A2.83,2.83,0,0,0,8.06,7a5.67,5.67,0,0,1-1.24-3.5,4,4,0,0,1,0-.69A2.76,2.76,0,0,0,5.68,2.5m13.64,0a2.76,2.76,0,0,0-1.18.27,4,4,0,0,1,0,.69A5.67,5.67,0,0,1,16.94,7a2.83,2.83,0,0,0,5.22-1.57A2.87,2.87,0,0,0,19.32,2.5M12.5,9.23c-2.27,0-6.82,1.15-6.82,3.46V15H19.32V12.69c0-2.31-4.55-3.46-6.82-3.46M4.17,10.35C2.27,10.68,0,11.58,0,13.07V15H3.41V12.69a4.24,4.24,0,0,1,.76-2.34m16.66,0a4.24,4.24,0,0,1,.76,2.34V15H25V13.07C25,11.58,22.73,10.68,20.83,10.35Z" style="fill: #919191"/>
</svg>
