<svg id="Camada_1" data-name="Camada 1" xmlns="http://www.w3.org/2000/svg" viewBox="0 0 20 27">
  <title>perfil</title>
  <g>
    <path d="M20,24.74v.36a1.2,1.2,0,0,1-.85.84,14.1,14.1,0,0,1-4,.87A65.7,65.7,0,0,1,7.58,27a29.69,29.69,0,0,1-4.1-.33,11.62,11.62,0,0,1-2.79-.75C.37,25.75.05,25.6,0,25.2v-.83a12.2,12.2,0,0,1,3.69-8.85A8.78,8.78,0,0,1,9,12.92a8.48,8.48,0,0,1,6.14,1.66A11.81,11.81,0,0,1,19.48,21,11.44,11.44,0,0,1,20,24.45C20,24.55,19.92,24.66,20,24.74Z" style="fill: #919191"/>
    <path d="M10.2,0c.25.17.54.11.81.16a5.34,5.34,0,0,1,4.36,4.73,5.25,5.25,0,0,1-3.61,5.46A5.43,5.43,0,0,1,4.87,7.17,5.25,5.25,0,0,1,8.29.32,9.21,9.21,0,0,0,9.57,0Z" style="fill: #919191"/>
  </g>
</svg>
